<mxfile host="app.diagrams.net" agent="Mozilla/5.0 (X11; Linux x86_64) AppleWebKit/537.36 (KHTML, like Gecko) Chrome/133.0.0.0 Safari/537.36" version="26.2.10">
  <diagram name="Page-1" id="_0CpSGeeFjJQ4nVo7uTQ">
    <mxGraphModel dx="1454" dy="688" grid="1" gridSize="10" guides="1" tooltips="1" connect="1" arrows="1" fold="1" page="1" pageScale="1" pageWidth="850" pageHeight="1100" math="0" shadow="0">
      <root>
        <mxCell id="0" />
        <mxCell id="1" parent="0" />
        <mxCell id="OrzhCYIXaeTWt3cV4chA-1" value="System Context" style="swimlane;whiteSpace=wrap;html=1;fillColor=#7EA6E0;" vertex="1" parent="1">
          <mxGeometry x="40" y="40" width="760" height="280" as="geometry">
            <mxRectangle x="40" y="40" width="130" height="30" as="alternateBounds" />
          </mxGeometry>
        </mxCell>
        <mxCell id="OrzhCYIXaeTWt3cV4chA-2" value="Spartacus SPA / Mobile App" style="rounded=1;whiteSpace=wrap;html=1;fillColor=#D4E1F5;" vertex="1" parent="OrzhCYIXaeTWt3cV4chA-1">
          <mxGeometry x="40" y="80" width="120" height="80" as="geometry" />
        </mxCell>
        <mxCell id="OrzhCYIXaeTWt3cV4chA-3" value="SAP Commerce Cloud&lt;div&gt;&lt;br&gt;&lt;/div&gt;&lt;div&gt;- Wishlist API&lt;/div&gt;&lt;div&gt;- sendWishlistInDiscountCronjob&lt;/div&gt;&lt;div&gt;&lt;br&gt;&lt;/div&gt;&lt;div&gt;data:&lt;/div&gt;&lt;div&gt;- Wishlist2, Wishlist2Entry&lt;/div&gt;&lt;div&gt;- Product&lt;/div&gt;" style="rounded=1;whiteSpace=wrap;html=1;fillColor=#D4E1F5;" vertex="1" parent="OrzhCYIXaeTWt3cV4chA-1">
          <mxGeometry x="280" y="40" width="200" height="160" as="geometry" />
        </mxCell>
        <mxCell id="OrzhCYIXaeTWt3cV4chA-5" value="SMTP server" style="rounded=1;whiteSpace=wrap;html=1;fillColor=#D4E1F5;" vertex="1" parent="OrzhCYIXaeTWt3cV4chA-1">
          <mxGeometry x="600" y="80" width="120" height="80" as="geometry" />
        </mxCell>
        <mxCell id="OrzhCYIXaeTWt3cV4chA-6" value="" style="shape=flexArrow;endArrow=classic;html=1;rounded=0;exitX=1;exitY=0.5;exitDx=0;exitDy=0;entryX=0;entryY=0.5;entryDx=0;entryDy=0;fillColor=#D5E8D4;" edge="1" parent="OrzhCYIXaeTWt3cV4chA-1" source="OrzhCYIXaeTWt3cV4chA-2" target="OrzhCYIXaeTWt3cV4chA-3">
          <mxGeometry width="50" height="50" relative="1" as="geometry">
            <mxPoint x="360" y="340" as="sourcePoint" />
            <mxPoint x="410" y="290" as="targetPoint" />
          </mxGeometry>
        </mxCell>
        <mxCell id="OrzhCYIXaeTWt3cV4chA-7" value="" style="shape=flexArrow;endArrow=classic;html=1;rounded=0;exitX=1;exitY=0.5;exitDx=0;exitDy=0;entryX=0;entryY=0.5;entryDx=0;entryDy=0;fillColor=#D5E8D4;" edge="1" parent="OrzhCYIXaeTWt3cV4chA-1" source="OrzhCYIXaeTWt3cV4chA-3" target="OrzhCYIXaeTWt3cV4chA-5">
          <mxGeometry width="50" height="50" relative="1" as="geometry">
            <mxPoint x="360" y="340" as="sourcePoint" />
            <mxPoint x="410" y="290" as="targetPoint" />
          </mxGeometry>
        </mxCell>
        <mxCell id="OrzhCYIXaeTWt3cV4chA-8" value="Wishlist API call" style="text;html=1;align=center;verticalAlign=middle;whiteSpace=wrap;rounded=0;" vertex="1" parent="OrzhCYIXaeTWt3cV4chA-1">
          <mxGeometry x="160" y="90" width="100" height="30" as="geometry" />
        </mxCell>
        <mxCell id="OrzhCYIXaeTWt3cV4chA-9" value="Sends discounted&lt;div&gt;&lt;span style=&quot;background-color: transparent; color: light-dark(rgb(0, 0, 0), rgb(255, 255, 255));&quot;&gt;products emails&lt;/span&gt;&lt;/div&gt;" style="text;html=1;align=center;verticalAlign=middle;whiteSpace=wrap;rounded=0;" vertex="1" parent="OrzhCYIXaeTWt3cV4chA-1">
          <mxGeometry x="480" y="80" width="110" height="30" as="geometry" />
        </mxCell>
        <mxCell id="OrzhCYIXaeTWt3cV4chA-11" value="Description: The Wishlist functionality is currently contained within SAP Commerce Cloud.&amp;nbsp;&lt;div&gt;FE clients interact with SAP Commerce Cloud via API calls.&amp;nbsp;&lt;div&gt;SAP Commerce Cloud sends email via an SMTP server.&lt;/div&gt;&lt;/div&gt;" style="text;html=1;align=center;verticalAlign=middle;whiteSpace=wrap;rounded=0;" vertex="1" parent="OrzhCYIXaeTWt3cV4chA-1">
          <mxGeometry x="40" y="220" width="680" height="40" as="geometry" />
        </mxCell>
      </root>
    </mxGraphModel>
  </diagram>
</mxfile>
